<svg width="25" height="24" viewBox="0 0 25 24" fill="none" xmlns="http://www.w3.org/2000/svg">
<path fill-rule="evenodd" clip-rule="evenodd" d="M9.73137 3.86572C7.80046 3.86572 6.23535 5.43016 6.23535 7.36049C6.23535 9.29082 7.80046 10.8553 9.73137 10.8553C11.6609 10.8553 13.2261 9.29097 13.2261 7.36049C13.2261 5.43001 11.6609 3.86572 9.73137 3.86572ZM4.73535 7.36049C4.73535 4.60115 6.97261 2.36572 9.73137 2.36572C12.489 2.36572 14.7261 4.6013 14.7261 7.36049C14.7261 10.1197 12.489 12.3553 9.73137 12.3553C6.97261 12.3553 4.73535 10.1198 4.73535 7.36049Z" fill="black"/>
<path fill-rule="evenodd" clip-rule="evenodd" d="M16.3096 5.41602C15.5771 5.41602 14.9193 5.73084 14.4624 6.2348L13.9585 6.79038L12.8474 5.78275L13.3512 5.22717C14.0806 4.42277 15.1365 3.91602 16.3096 3.91602C18.5132 3.91602 20.3009 5.70243 20.3009 7.90729C20.3009 10.1121 18.5132 11.8986 16.3096 11.8986C14.9021 11.8986 13.6651 11.1698 12.9552 10.0723L12.5479 9.44256L13.8074 8.62791L14.2147 9.25767C14.6598 9.94576 15.432 10.3986 16.3096 10.3986C17.6851 10.3986 18.8009 9.28343 18.8009 7.90729C18.8009 6.53115 17.6851 5.41602 16.3096 5.41602Z" fill="black"/>
<path fill-rule="evenodd" clip-rule="evenodd" d="M3.92335 18.8865C5.62581 19.7746 7.60641 20.1389 9.76224 20.1336H9.7659C11.9217 20.1389 13.9023 19.7746 15.6047 18.8866C14.6212 16.568 12.4438 15.4501 9.76599 15.4569H9.76215C7.08097 15.4501 4.90704 16.5654 3.92335 18.8865ZM9.76406 13.9569C6.39367 13.9489 3.38614 15.5175 2.28489 18.9999L2.10764 19.5604L2.6096 19.8664C4.73276 21.1607 7.19981 21.6396 9.76407 21.6336C12.3283 21.6396 14.7954 21.1607 16.9185 19.8664L17.4205 19.5604L17.2432 18.9999C16.1431 15.5209 13.1311 13.9489 9.76406 13.9569Z" fill="black"/>
<path fill-rule="evenodd" clip-rule="evenodd" d="M16.3334 14.266C14.9686 14.2625 13.8071 14.6535 12.9904 15.4051L12.4386 15.913L11.4228 14.8093L11.9747 14.3014C13.1337 13.2347 14.6923 12.7622 16.3353 12.766C18.9631 12.7599 21.3464 13.9924 22.2154 16.7406L22.3927 17.3011L21.8907 17.6071C20.2328 18.6178 18.3133 18.9873 16.3335 18.9825L15.5835 18.9806L15.5872 17.4806L16.3372 17.4825C17.9008 17.4863 19.3303 17.2324 20.5644 16.6257C19.8178 15.0367 18.2678 14.2611 16.3373 14.266H16.3334Z" fill="black"/>
</svg>
