<svg width="25" height="24" viewBox="0 0 25 24" fill="none" xmlns="http://www.w3.org/2000/svg">
<path fill-rule="evenodd" clip-rule="evenodd" d="M12.2001 4.14258C10.3422 4.14258 8.8363 5.64785 8.8363 7.50518C8.8363 9.3625 10.3422 10.8678 12.2001 10.8678C14.0567 10.8678 15.5627 9.36265 15.5627 7.50518C15.5627 5.64771 14.0567 4.14258 12.2001 4.14258ZM7.3363 7.50518C7.3363 4.81885 9.51437 2.64258 12.2001 2.64258C14.8848 2.64258 17.0627 4.81899 17.0627 7.50518C17.0627 10.1914 14.8848 12.3678 12.2001 12.3678C9.51437 12.3678 7.3363 10.1915 7.3363 7.50518Z" fill="black"/>
<path fill-rule="evenodd" clip-rule="evenodd" d="M6.60266 18.6618C8.24353 19.5128 10.1517 19.8625 12.2297 19.8574H12.2334C14.3114 19.8625 16.2195 19.5128 17.8604 18.6619C16.9079 16.4394 14.8131 15.3665 12.2335 15.3731H12.2296C9.64672 15.3665 7.55531 16.4369 6.60266 18.6618ZM12.2316 13.8731C8.95864 13.8653 6.03377 15.3893 4.96299 18.7753L4.78574 19.3358L5.2877 19.6418C7.34951 20.8987 9.74436 21.3633 12.2316 21.3574C14.7188 21.3633 17.1136 20.8987 19.1754 19.6418L19.6774 19.3358L19.5001 18.7753C18.4305 15.3925 15.5013 13.8653 12.2316 13.8731Z" fill="black"/>
<path fill-rule="evenodd" clip-rule="evenodd" d="M6.84653 13.023C4.48176 13.0169 2.32173 14.1282 1.53491 16.6165L1.35767 17.177L1.85962 17.483C2.66689 17.9751 3.54323 18.2981 4.45785 18.4898L5.19189 18.6437L5.49967 17.1756L4.76563 17.0218C4.20941 16.9051 3.68392 16.734 3.19324 16.5008C3.85406 15.1717 5.18045 14.5187 6.84269 14.523L7.59269 14.5249L7.59653 13.0249L6.84653 13.023Z" fill="black"/>
<path fill-rule="evenodd" clip-rule="evenodd" d="M8.95442 5.71563L8.26189 5.42769C6.40962 4.65754 4.28264 5.53435 3.51205 7.38768C2.74147 9.241 3.61977 11.3674 5.47205 12.1375C7.00189 12.7736 8.71667 12.2868 9.70262 11.0567L10.1717 10.4715L9.00124 9.53339L8.53218 10.1186C7.95296 10.8413 6.94504 11.1255 6.04793 10.7525C4.96033 10.3003 4.44468 9.05168 4.8971 7.96356C5.34953 6.87544 6.59841 6.36053 7.68601 6.81273L8.37853 7.10068L8.95442 5.71563Z" fill="black"/>
<path fill-rule="evenodd" clip-rule="evenodd" d="M17.6537 13.023C20.0185 13.0169 22.1785 14.1282 22.9653 16.6165L23.1426 17.177L22.6406 17.483C21.8334 17.9751 20.957 18.2981 20.0424 18.4898L19.3084 18.6437L19.0006 17.1756L19.7346 17.0218C20.2908 16.9051 20.8163 16.734 21.307 16.5008C20.6462 15.1717 19.3198 14.5187 17.6576 14.523L16.9076 14.5249L16.9037 13.0249L17.6537 13.023Z" fill="black"/>
<path fill-rule="evenodd" clip-rule="evenodd" d="M15.2757 5.91838L15.9389 5.56806C17.4684 4.76006 19.4029 5.13883 20.502 6.55279C21.7338 8.13748 21.447 10.4201 19.8632 11.6513C18.2788 12.8828 15.996 12.5978 14.764 11.013L14.3038 10.4209L15.488 9.50029L15.9483 10.0924C16.6715 11.0227 18.0119 11.1905 18.9426 10.467C19.8726 9.7441 20.0409 8.40376 19.3177 7.47336C18.6731 6.64419 17.537 6.42029 16.6395 6.89437L15.9764 7.24469L15.2757 5.91838Z" fill="black"/>
</svg>
