<svg width="25" height="25" viewBox="0 0 25 25" fill="none" xmlns="http://www.w3.org/2000/svg">
<path fill-rule="evenodd" clip-rule="evenodd" d="M17.2701 10.445L13.6028 15.178L10.4047 12.6658L7.60375 16.3061L6.41492 15.3914L10.1398 10.5503L13.342 13.0657L16.0844 9.52625L17.2701 10.445Z" fill="black"/>
<path fill-rule="evenodd" clip-rule="evenodd" d="M19.4181 4.28467C18.8372 4.28467 18.3664 4.75554 18.3664 5.33638C18.3664 5.91723 18.8372 6.38809 19.4181 6.38809C19.9989 6.38809 20.4698 5.91723 20.4698 5.33638C20.4698 4.75554 19.9989 4.28467 19.4181 4.28467ZM16.8664 5.33638C16.8664 3.92711 18.0088 2.78467 19.4181 2.78467C20.8273 2.78467 21.9698 3.92711 21.9698 5.33638C21.9698 6.74565 20.8273 7.88809 19.4181 7.88809C18.0088 7.88809 16.8664 6.74565 16.8664 5.33638Z" fill="black"/>
<path fill-rule="evenodd" clip-rule="evenodd" d="M2.53027 3.57397H15.4154V5.07397H4.03027V20.7846H19.7409V9.37378H21.2409V22.2846H2.53027V3.57397Z" fill="black"/>
</svg>
