<svg width="25" height="24" viewBox="0 0 25 24" fill="none" xmlns="http://www.w3.org/2000/svg">
<path fill-rule="evenodd" clip-rule="evenodd" d="M20.043 7.91895V13.4289H18.543V7.91895H20.043Z" fill="black"/>
<path fill-rule="evenodd" clip-rule="evenodd" d="M16.498 9.92383H22.088V11.4238H16.498V9.92383Z" fill="black"/>
<path fill-rule="evenodd" clip-rule="evenodd" d="M10.171 3.5C8.14347 3.5 6.5 5.14275 6.5 7.16973C6.5 9.19672 8.14347 10.8395 10.171 10.8395C12.1971 10.8395 13.8408 9.19686 13.8408 7.16973C13.8408 5.1426 12.1971 3.5 10.171 3.5ZM5 7.16973C5 4.31374 7.31562 2 10.171 2C13.0253 2 15.3408 4.31389 15.3408 7.16973C15.3408 10.0256 13.0253 12.3395 10.171 12.3395C7.31562 12.3395 5 10.0257 5 7.16973Z" fill="black"/>
<path fill-rule="evenodd" clip-rule="evenodd" d="M4.08398 19.185C5.86795 20.1222 7.94445 20.5057 10.2032 20.5001H10.2068C12.4655 20.5057 14.5419 20.1222 16.3259 19.185C15.3014 16.7392 13.0146 15.5617 10.2069 15.5689H10.2031C7.39189 15.5617 5.10871 16.7364 4.08398 19.185ZM10.205 14.0689C6.70554 14.0605 3.58858 15.6881 2.447 19.2981L2.26974 19.8586L2.77171 20.1646C4.97607 21.5084 7.53872 22.0064 10.205 22.0001C12.8712 22.0064 15.4339 21.5084 17.6383 20.1646L18.1402 19.8586L17.963 19.2981C16.8226 15.6917 13.701 14.0605 10.205 14.0689Z" fill="black"/>
</svg>
