<svg width="25" height="25" viewBox="0 0 25 25" fill="none" xmlns="http://www.w3.org/2000/svg">
<path fill-rule="evenodd" clip-rule="evenodd" d="M12.25 3.63867C7.55558 3.63867 3.75 7.44425 3.75 12.1387C3.75 16.8331 7.55558 20.6387 12.25 20.6387C16.9444 20.6387 20.75 16.8331 20.75 12.1387C20.75 7.44425 16.9444 3.63867 12.25 3.63867ZM2.25 12.1387C2.25 6.61582 6.72715 2.13867 12.25 2.13867C17.7728 2.13867 22.25 6.61582 22.25 12.1387C22.25 17.6615 17.7728 22.1387 12.25 22.1387C6.72715 22.1387 2.25 17.6615 2.25 12.1387Z" fill="black"/>
<path fill-rule="evenodd" clip-rule="evenodd" d="M12.6178 7.90885L10.6847 14.4611H14.2945V15.9611H9.52718L8.95797 15.0128L11.1792 7.48438L12.6178 7.90885Z" fill="black"/>
<path fill-rule="evenodd" clip-rule="evenodd" d="M15.8857 10.563H17.3957V12.063H15.8857V10.563Z" fill="black"/>
<path fill-rule="evenodd" clip-rule="evenodd" d="M6.43262 10.563H7.94262V12.063H6.43262V10.563Z" fill="black"/>
</svg>
