<svg width="25" height="25" viewBox="0 0 25 25" fill="none" xmlns="http://www.w3.org/2000/svg">
<path fill-rule="evenodd" clip-rule="evenodd" d="M7.48048 6.65618C7.49183 4.02672 9.63258 1.90606 12.2611 1.91654C14.8891 1.91742 17.0194 4.04852 17.0194 6.6775V10.6507H15.5194V6.6775C15.5194 4.87615 14.0595 3.41654 12.2595 3.41654H12.2563C10.4552 3.40876 8.98907 4.86098 8.98047 6.66113V10.6507H7.48047L7.48048 6.65618Z" fill="black"/>
<path fill-rule="evenodd" clip-rule="evenodd" d="M12.25 22.3607C6.72715 22.3607 2.25 17.8836 2.25 12.3607L2.25 6.67328L22.25 6.67328L22.25 12.3607C22.25 17.8836 17.7728 22.3607 12.25 22.3607ZM3.75 12.3607C3.75 17.0551 7.55558 20.8607 12.25 20.8607C16.9444 20.8607 20.75 17.0551 20.75 12.3607L20.75 8.17328L3.75 8.17328L3.75 12.3607Z" fill="black"/>
</svg>
