<svg width="25" height="25" viewBox="0 0 25 25" fill="none" xmlns="http://www.w3.org/2000/svg">
<path d="M13.8292 11.7097H17.9987V10.2142H13.8292V11.7097Z" fill="black"/>
<path fill-rule="evenodd" clip-rule="evenodd" d="M2.20174 3.2939C2.18942 3.32612 2.18493 3.66768 2.19186 4.05297L2.20442 4.75348L4.71836 4.77759L4.73966 4.87883C4.7514 4.93452 5.03824 7.76368 5.37706 11.1659C5.71588 14.5681 6.00167 17.3772 6.01213 17.4083C6.04014 17.4916 20.8025 17.4916 20.8306 17.4083C20.8412 17.3772 21.1676 14.9249 21.556 11.9589C21.9443 8.99291 22.2732 6.51007 22.2867 6.44155L22.3114 6.31692H6.40511L6.37783 6.10167C6.36288 5.98325 6.29947 5.3562 6.23698 4.70816C6.17443 4.06013 6.11247 3.46361 6.09929 3.38263L6.07522 3.23535H4.14972C2.61779 3.23535 2.21965 3.24732 2.20174 3.2939ZM20.5583 8.05031C20.5417 8.18114 20.3005 10.0114 20.0224 12.1175L19.5168 15.9468L13.4539 15.9584C8.62638 15.9675 7.38704 15.9583 7.37172 15.913C7.36116 15.8818 7.17811 14.1024 6.96501 11.9589C6.75187 9.81542 6.56786 8.00554 6.55613 7.93702L6.53483 7.81239H20.5885L20.5583 8.05031Z" fill="black"/>
<path d="M7.52019 19.339C6.57888 19.602 6.26856 20.7781 6.95848 21.4679C7.15273 21.6621 7.37654 21.7765 7.63835 21.8145C7.71041 21.8272 7.78458 21.8339 7.86029 21.8339C7.98647 21.8339 8.10836 21.8154 8.2234 21.7812C8.38486 21.7373 8.52703 21.663 8.65047 21.558C8.94254 21.3254 9.12976 20.9668 9.12976 20.5644C9.12976 19.8633 8.56139 19.2949 7.86029 19.2949C7.81408 19.2949 7.76846 19.2974 7.72353 19.3022C7.655 19.3082 7.58694 19.3204 7.52019 19.339Z" fill="black"/>
<path d="M18.7248 19.2949C18.9772 19.2949 19.2125 19.3686 19.4101 19.4956C19.5062 19.5518 19.5897 19.6186 19.653 19.6939C19.6716 19.716 19.6892 19.7376 19.7059 19.7587C19.7517 19.8145 19.7929 19.8742 19.8288 19.9373C19.8418 19.9599 19.8538 19.9825 19.8647 20.0051C19.9477 20.1738 19.9943 20.3637 19.9943 20.5644C19.9943 20.7254 19.9643 20.8794 19.9096 21.0211C19.8736 21.1301 19.8192 21.2271 19.7413 21.3249C19.5229 21.6164 19.182 21.8109 18.795 21.8319C18.3923 21.8553 17.9827 21.6899 17.7226 21.3458C17.5288 21.0894 17.4549 20.8719 17.4549 20.5583C17.4549 20.1216 17.6666 19.7405 18.0158 19.5112C18.2183 19.3746 18.4622 19.2949 18.7248 19.2949Z" fill="black"/>
</svg>
