<svg width="25" height="25" viewBox="0 0 25 25" fill="none" xmlns="http://www.w3.org/2000/svg">
<path fill-rule="evenodd" clip-rule="evenodd" d="M3.26074 9.38367H21.248V10.8837H3.26074V9.38367Z" fill="black"/>
<path fill-rule="evenodd" clip-rule="evenodd" d="M15.6087 12.9962H17.1173V14.4962H15.6087V12.9962Z" fill="black"/>
<path fill-rule="evenodd" clip-rule="evenodd" d="M11.5045 12.9962H13.013V14.4962H11.5045V12.9962Z" fill="black"/>
<path fill-rule="evenodd" clip-rule="evenodd" d="M7.39117 12.9962H8.89974V14.4962H7.39117V12.9962Z" fill="black"/>
<path fill-rule="evenodd" clip-rule="evenodd" d="M15.6087 16.5912H17.1173V18.0912H15.6087V16.5912Z" fill="black"/>
<path fill-rule="evenodd" clip-rule="evenodd" d="M11.5045 16.5912H13.013V18.0912H11.5045V16.5912Z" fill="black"/>
<path fill-rule="evenodd" clip-rule="evenodd" d="M7.39117 16.5912H8.89974V18.0912H7.39117V16.5912Z" fill="black"/>
<path fill-rule="evenodd" clip-rule="evenodd" d="M16.7408 2.53467V7.07865H15.2408V2.53467H16.7408Z" fill="black"/>
<path fill-rule="evenodd" clip-rule="evenodd" d="M9.26852 2.53467V7.07865H7.76852V2.53467H9.26852Z" fill="black"/>
<path fill-rule="evenodd" clip-rule="evenodd" d="M3.17578 3.99536H21.3258V22.5347H3.17578V3.99536ZM4.67578 5.49536V21.0347H19.8258V5.49536H4.67578Z" fill="black"/>
</svg>
