<svg width="25" height="25" viewBox="0 0 25 25" fill="none" xmlns="http://www.w3.org/2000/svg">
<path fill-rule="evenodd" clip-rule="evenodd" d="M13.8344 2.52576L14.5799 2.60854C18.6291 3.05821 21.8283 6.25296 22.2824 10.3024L22.366 11.0477L20.8753 11.2149L20.7918 10.4695C20.4158 7.11695 17.767 4.47169 14.4143 4.09937L13.6689 4.01659L13.8344 2.52576Z" fill="black"/>
<path fill-rule="evenodd" clip-rule="evenodd" d="M13.9038 6.0177L14.6401 6.16071C16.7116 6.56308 18.3299 8.18297 18.7332 10.2535L18.8766 10.9897L17.4043 11.2765L17.2609 10.5404C16.9743 9.06893 15.8246 7.91882 14.3541 7.63319L13.6178 7.49018L13.9038 6.0177Z" fill="black"/>
<path fill-rule="evenodd" clip-rule="evenodd" d="M6.72806 2.3634L10.655 7.75751L8.93004 10.7533C8.99136 10.9341 9.08993 11.1944 9.23679 11.5043C9.53622 12.1361 10.0311 12.9627 10.8107 13.7423C11.6365 14.5681 12.5128 15.1095 13.1835 15.4441C13.5171 15.6105 13.797 15.7242 13.9901 15.7954L16.9773 14.0754L22.5151 18.159L22.1919 18.7363C21.2666 20.3896 20.0854 21.5708 18.432 22.4962L18.2772 22.5828L18.1 22.5909C13.2213 22.8143 9.02628 20.1614 6.20312 16.8778C4.7867 15.2304 3.69191 13.3992 3.01052 11.6366C2.33428 9.88736 2.04082 8.14091 2.31257 6.6879L2.33639 6.56053L2.40157 6.44854C3.33633 4.84229 4.54315 3.64494 6.14209 2.7071L6.72806 2.3634ZM14.0727 16.6133C13.8744 17.3367 13.8742 17.3366 13.8739 17.3365L13.8723 17.3361L13.8695 17.3353L13.8617 17.3331L13.8374 17.3261C13.8175 17.3202 13.7902 17.3119 13.7561 17.3011C13.6878 17.2794 13.5919 17.2473 13.4729 17.2034C13.2351 17.1158 12.9035 16.9806 12.514 16.7863C11.7367 16.3986 10.7168 15.7697 9.75005 14.8029C8.82169 13.8746 8.23576 12.8946 7.88132 12.1467C7.70373 11.772 7.58295 11.4529 7.50558 11.2234C7.46685 11.1086 7.43889 11.0158 7.42004 10.9495C7.41061 10.9163 7.40345 10.8896 7.39836 10.8701L7.39225 10.8461L7.39031 10.8382L7.3896 10.8353L7.38932 10.8341C7.38926 10.8339 7.38908 10.8331 8.11867 10.6594L7.38908 10.8331L7.32005 10.5433L8.86913 7.853L6.32824 4.3628C5.26754 5.08505 4.44064 5.9629 3.76575 7.08836C3.60154 8.15183 3.81232 9.55071 4.40961 11.0957C5.0254 12.6886 6.02827 14.3736 7.34052 15.8999C9.93804 18.921 13.6558 21.2232 17.8536 21.0992C18.9914 20.436 19.843 19.6367 20.542 18.5677L16.8762 15.8645L14.1759 17.4193L13.8739 17.3365L14.0727 16.6133Z" fill="black"/>
</svg>
