<svg width="25" height="25" viewBox="0 0 25 25" fill="none" xmlns="http://www.w3.org/2000/svg">
<path fill-rule="evenodd" clip-rule="evenodd" d="M6.72806 2.17346L10.655 7.56757L8.93004 10.5633C8.95334 10.6321 8.98208 10.7124 9.01685 10.8027C9.14634 11.139 9.35814 11.6093 9.68289 12.1302L10.0797 12.7666L8.80691 13.5602L8.41007 12.9238C8.02652 12.3087 7.77441 11.7504 7.61707 11.3418C7.53828 11.1372 7.48288 10.9692 7.44642 10.8492C7.42819 10.7892 7.41466 10.7411 7.40529 10.7063C7.40061 10.6889 7.39696 10.6748 7.39428 10.6643L7.39098 10.651L7.38985 10.6464L7.38942 10.6446L7.38915 10.6435C7.38911 10.6434 7.38907 10.6432 8.11866 10.4694L7.38915 10.6435L7.32004 10.3534L8.86912 7.66306L6.32823 4.17286C5.26753 4.89511 4.44063 5.77296 3.76574 6.89842C3.61176 7.89567 3.78719 9.18988 4.3055 10.6272C4.84154 12.1136 5.72452 13.6967 6.89174 15.1668L7.35809 15.7542L6.18334 16.6869L5.71698 16.0995C4.45745 14.5131 3.49039 12.7886 2.89445 11.136C2.30265 9.49496 2.0565 7.86711 2.31257 6.49796L2.33639 6.37059L2.40156 6.2586C3.33633 4.65235 4.54314 3.455 6.14209 2.51716L6.72806 2.17346ZM10.9433 13.7257L11.5283 14.195C12.2435 14.7689 12.9409 15.1491 13.4574 15.385C13.6712 15.4826 13.8528 15.5548 13.9901 15.6055L16.9773 13.8854L22.515 17.969L22.1919 18.5463C21.2666 20.1997 20.0854 21.3809 18.432 22.3062L18.2772 22.3929L18.1 22.401C14.0441 22.5867 10.4582 20.7818 7.74897 18.2884L7.19711 17.7805L8.21291 16.6768L8.76476 17.1847C11.2263 19.4501 14.3739 21.0122 17.8536 20.9093C18.9914 20.2461 19.843 19.4468 20.542 18.3778L16.8762 15.6746L14.1759 17.2294L13.8744 17.1467L14.0726 16.4234C13.8744 17.1467 13.8746 17.1468 13.8744 17.1467L13.8726 17.1462L13.8704 17.1456L13.8642 17.1439L13.8455 17.1385C13.8303 17.1341 13.8096 17.1279 13.7838 17.1198C13.7321 17.1038 13.6598 17.0803 13.5696 17.0484C13.3893 16.9847 13.1368 16.8875 12.8345 16.7495C12.231 16.474 11.4215 16.0325 10.5896 15.365L10.0046 14.8956L10.9433 13.7257Z" fill="black"/>
<path fill-rule="evenodd" clip-rule="evenodd" d="M19.9394 6.32498L4.29877 23.0083L3.20447 21.9824L18.8451 5.29907L19.9394 6.32498Z" fill="black"/>
</svg>
