<svg width="25" height="25" viewBox="0 0 25 25" fill="none" xmlns="http://www.w3.org/2000/svg">
<path fill-rule="evenodd" clip-rule="evenodd" d="M6.72904 2.3634L10.656 7.75751L8.93102 10.7533C8.99234 10.9341 9.09091 11.1944 9.23777 11.5043C9.5372 12.1361 10.0321 12.9627 10.8117 13.7423C11.6375 14.5681 12.5138 15.1095 13.1845 15.4441C13.5181 15.6105 13.798 15.7242 13.9911 15.7954L16.9783 14.0754L22.516 18.159L22.1929 18.7363C21.2675 20.3896 20.0864 21.5708 18.433 22.4962L18.2782 22.5828L18.101 22.5909C13.2223 22.8143 9.02726 20.1614 6.20409 16.8778C4.78768 15.2304 3.69289 13.3992 3.0115 11.6366C2.33525 9.88736 2.04179 8.14091 2.31355 6.6879L2.33737 6.56053L2.40254 6.44854C3.33731 4.84229 4.54413 3.64494 6.14307 2.7071L6.72904 2.3634ZM14.0736 16.6133C13.8754 17.3367 13.8751 17.3366 13.8749 17.3365L13.8733 17.3361L13.8705 17.3353L13.8626 17.3331L13.8384 17.3261C13.8185 17.3202 13.7912 17.3119 13.757 17.3011C13.6887 17.2794 13.5929 17.2473 13.4739 17.2034C13.236 17.1158 12.9045 16.9806 12.515 16.7863C11.7376 16.3986 10.7178 15.7697 9.75102 14.8029C8.82267 13.8746 8.23674 12.8946 7.8823 12.1467C7.70471 11.772 7.58393 11.4529 7.50655 11.2234C7.46783 11.1086 7.43986 11.0158 7.42101 10.9495C7.41159 10.9163 7.40443 10.8896 7.39934 10.8701L7.39323 10.8461L7.39128 10.8382L7.39058 10.8353L7.39029 10.8341C7.39024 10.8339 7.39005 10.8331 8.11965 10.6594L7.39005 10.8331L7.32103 10.5433L8.8701 7.853L6.32922 4.3628C5.26851 5.08505 4.44162 5.9629 3.76672 7.08836C3.60251 8.15183 3.8133 9.55071 4.41059 11.0957C5.02637 12.6886 6.02925 14.3736 7.34149 15.8999C9.93902 18.921 13.6568 21.2232 17.8546 21.0992C18.9924 20.436 19.844 19.6367 20.543 18.5677L16.8772 15.8645L14.1769 17.4193L13.8749 17.3365L14.0736 16.6133Z" fill="black"/>
</svg>
