<svg width="25" height="24" viewBox="0 0 25 24" fill="none" xmlns="http://www.w3.org/2000/svg">
<path fill-rule="evenodd" clip-rule="evenodd" d="M8.79851 3.24219H15.7004L17.4324 5.94755H22.25L22.25 20.7582H2.25001L2.25 5.94755H7.0675L8.79851 3.24219ZM9.61951 4.74219L7.8885 7.44755H3.75L3.75001 19.2582H20.75L20.75 7.44755H16.6116L14.8796 4.74219H9.61951Z" fill="black"/>
<path fill-rule="evenodd" clip-rule="evenodd" d="M17.4271 9.78516H18.9361V11.2852H17.4271V9.78516Z" fill="black"/>
<path fill-rule="evenodd" clip-rule="evenodd" d="M8.32031 13.2142C8.32031 11.0439 10.0791 9.28516 12.2493 9.28516C14.4195 9.28516 16.1783 11.0439 16.1783 13.2142C16.1783 15.3844 14.4195 17.1432 12.2493 17.1432C10.0791 17.1432 8.32031 15.3844 8.32031 13.2142ZM12.2493 10.7852C10.9075 10.7852 9.82031 11.8724 9.82031 13.2142C9.82031 14.5559 10.9075 15.6432 12.2493 15.6432C13.5911 15.6432 14.6783 14.5559 14.6783 13.2142C14.6783 11.8724 13.5911 10.7852 12.2493 10.7852Z" fill="black"/>
</svg>
