<svg width="25" height="25" viewBox="0 0 25 25" fill="none" xmlns="http://www.w3.org/2000/svg">
<path fill-rule="evenodd" clip-rule="evenodd" d="M18.2677 6.14275C14.9613 2.83596 9.58847 2.83596 6.28204 6.14361C4.62282 7.80247 3.79657 9.97115 3.79819 12.1426C3.79943 13.8218 3.78737 16.1241 3.77501 18.0052C3.76883 18.946 3.76257 19.782 3.75785 20.3828L3.75621 20.5872C3.81761 20.5868 3.8822 20.5864 3.94981 20.586C4.54389 20.5822 5.37036 20.578 6.30002 20.5759C8.15728 20.5719 10.4337 20.5768 12.0909 20.6126C14.3214 20.6608 16.5632 19.8357 18.2677 18.131C21.5745 14.8238 21.5803 9.45575 18.2677 6.14275ZM3 21.3429L2.25002 21.3363L2.2579 20.371C2.26261 19.7707 2.26886 18.9354 2.27504 17.9953C2.2874 16.1146 2.29943 13.817 2.29819 12.1437C2.29629 9.59021 3.26915 7.03481 5.22118 5.08314C5.22113 5.0832 5.22124 5.08309 5.22118 5.08314M5.22118 5.08314C9.11344 1.18963 15.4362 1.18952 19.3284 5.08215C23.2274 8.98161 23.2203 15.2993 19.3284 19.1916C17.3229 21.1973 14.6811 22.1689 12.0585 22.1122C10.4205 22.0768 8.15957 22.0719 6.30328 22.0759C5.37615 22.078 4.5518 22.0822 3.95925 22.0859C3.663 22.0878 3.42473 22.0895 3.26059 22.0908L3.00771 22.0929L3 21.3429L3.00671 22.0929L2.24341 22.0997L2.25002 21.3363L3 21.3429" fill="black"/>
<path fill-rule="evenodd" clip-rule="evenodd" d="M7.71594 11.7695H9.31468V13.2695H7.71594V11.7695Z" fill="black"/>
<path fill-rule="evenodd" clip-rule="evenodd" d="M11.4502 11.7697H13.0489V13.2697H11.4502V11.7697Z" fill="black"/>
<path fill-rule="evenodd" clip-rule="evenodd" d="M15.1845 11.7695H16.7832V13.2695H15.1845V11.7695Z" fill="black"/>
</svg>
