<svg width="25" height="25" viewBox="0 0 25 25" fill="none" xmlns="http://www.w3.org/2000/svg">
<path fill-rule="evenodd" clip-rule="evenodd" d="M12.25 4.03467C7.55521 4.03467 3.75 7.83988 3.75 12.5347C3.75 17.2285 7.55527 21.0347 12.25 21.0347C16.9438 21.0347 20.75 17.2285 20.75 12.5347C20.75 7.83993 16.9438 4.03467 12.25 4.03467ZM2.25 12.5347C2.25 7.01145 6.72679 2.53467 12.25 2.53467C17.7722 2.53467 22.25 7.0114 22.25 12.5347C22.25 18.0569 17.7722 22.5347 12.25 22.5347C6.72673 22.5347 2.25 18.0568 2.25 12.5347Z" fill="black"/>
<path fill-rule="evenodd" clip-rule="evenodd" d="M12.9951 7.98877V13.9078H11.4951V7.98877H12.9951Z" fill="black"/>
<path fill-rule="evenodd" clip-rule="evenodd" d="M11.495 15.5806H13.005V17.0806H11.495V15.5806Z" fill="black"/>
</svg>
