<svg width="25" height="25" viewBox="0 0 25 25" fill="none" xmlns="http://www.w3.org/2000/svg">
<path fill-rule="evenodd" clip-rule="evenodd" d="M15.4435 10.1941L9.90819 15.7294L8.84753 14.6687L14.3828 9.13342L15.4435 10.1941Z" fill="black"/>
<path fill-rule="evenodd" clip-rule="evenodd" d="M13.5661 13.8562H15.074V15.3562H13.5661V13.8562Z" fill="black"/>
<path fill-rule="evenodd" clip-rule="evenodd" d="M9.21457 9.50366H10.7224V11.0037H9.21457V9.50366Z" fill="black"/>
<path fill-rule="evenodd" clip-rule="evenodd" d="M12.25 2.04333L12.8476 2.8315C14.2145 4.63409 16.4475 5.55904 18.6886 5.2509L19.6685 5.11617L19.5338 6.09607C19.2256 8.33718 20.1506 10.5702 21.9532 11.937L22.7413 12.5346L21.9532 13.1323C20.1506 14.4991 19.2256 16.7321 19.5338 18.9732L19.6685 19.9531L18.6886 19.8184C16.4475 19.5103 14.2145 20.4352 12.8476 22.2378L12.25 23.026L11.6524 22.2378C10.2856 20.4352 8.05254 19.5103 5.81143 19.8184L4.83153 19.9531L4.96626 18.9732C5.2744 16.7321 4.34945 14.4991 2.54686 13.1323L1.7587 12.5346L2.54686 11.937C4.34946 10.5702 5.2744 8.33718 4.96626 6.09607L4.83153 5.11617L5.81143 5.2509C8.05255 5.55904 10.2856 4.63409 11.6524 2.8315L12.25 2.04333ZM6.52346 6.80809C6.56286 8.96233 5.70258 11.0392 4.15144 12.5346C5.70258 14.0301 6.56286 16.107 6.52346 18.2612C8.6777 18.2218 10.7546 19.0821 12.25 20.6332C13.7454 19.0821 15.8223 18.2218 17.9766 18.2612C17.9372 16.107 18.7974 14.0301 20.3486 12.5346C18.7974 11.0392 17.9372 8.96233 17.9766 6.80809C15.8223 6.8475 13.7454 5.98722 12.25 4.43608C10.7546 5.98722 8.6777 6.8475 6.52346 6.80809Z" fill="black"/>
</svg>
