<svg width="25" height="24" viewBox="0 0 25 24" fill="none" xmlns="http://www.w3.org/2000/svg">
<path fill-rule="evenodd" clip-rule="evenodd" d="M16.2265 7.99316L14.7933 14.5428L9.43821 15.7146L8.27417 16.0071L9.70746 9.45696L15.0627 8.28514L16.2265 7.99316ZM10.2484 14.0018L13.5335 13.283L14.2523 9.99795L10.9673 10.7168L10.2484 14.0018Z" fill="black"/>
<path fill-rule="evenodd" clip-rule="evenodd" d="M12.25 3.5C7.55558 3.5 3.75 7.30558 3.75 12C3.75 16.6944 7.55558 20.5 12.25 20.5C16.9444 20.5 20.75 16.6944 20.75 12C20.75 7.30558 16.9444 3.5 12.25 3.5ZM2.25 12C2.25 6.47715 6.72715 2 12.25 2C17.7728 2 22.25 6.47715 22.25 12C22.25 17.5228 17.7728 22 12.25 22C6.72715 22 2.25 17.5228 2.25 12Z" fill="black"/>
</svg>
