<svg width="25" height="25" viewBox="0 0 25 25" fill="none" xmlns="http://www.w3.org/2000/svg">
<path fill-rule="evenodd" clip-rule="evenodd" d="M13.1826 6.82935L18.0441 11.6908L7.13071 22.6042L2.27381 22.5996L2.26924 17.7427L13.1826 6.82935ZM3.76983 18.3635L3.7724 21.101L6.50997 21.1036L15.9228 11.6908L13.1826 8.95067L3.76983 18.3635Z" fill="black"/>
<path fill-rule="evenodd" clip-rule="evenodd" d="M13.1826 6.82947L18.0441 11.6909L7.13071 22.6043L2.27381 22.5998L2.26924 17.7429L13.1826 6.82947ZM3.76983 18.3636L3.7724 21.1012L6.50997 21.1037L15.9228 11.6909L13.1826 8.95079L3.76983 18.3636Z" fill="black"/>
<path fill-rule="evenodd" clip-rule="evenodd" d="M13.7433 15.1577L9.69649 11.1109L10.7572 10.0502L14.804 14.0971L13.7433 15.1577Z" fill="black"/>
<path fill-rule="evenodd" clip-rule="evenodd" d="M22.2305 22.604H12.1937V21.104H20.7305V4.104H3.76927V12.8004H2.26927V2.604H22.2305V22.604Z" fill="black"/>
</svg>
