<svg width="25" height="25" viewBox="0 0 25 25" fill="none" xmlns="http://www.w3.org/2000/svg">
<path fill-rule="evenodd" clip-rule="evenodd" d="M12.25 3.63867C7.55558 3.63867 3.75 7.44425 3.75 12.1387C3.75 16.8331 7.55558 20.6387 12.25 20.6387C16.9444 20.6387 20.75 16.8331 20.75 12.1387C20.75 7.44425 16.9444 3.63867 12.25 3.63867ZM2.25 12.1387C2.25 6.61582 6.72715 2.13867 12.25 2.13867C17.7728 2.13867 22.25 6.61582 22.25 12.1387C22.25 17.6615 17.7728 22.1387 12.25 22.1387C6.72715 22.1387 2.25 17.6615 2.25 12.1387Z" fill="black"/>
<path fill-rule="evenodd" clip-rule="evenodd" d="M8.75195 12.6899C8.75195 14.6217 10.318 16.1878 12.2498 16.1878C14.1816 16.1878 15.7476 14.6217 15.7476 12.6899H17.2476C17.2476 15.4502 15.01 17.6878 12.2498 17.6878C9.48956 17.6878 7.25195 15.4502 7.25195 12.6899H8.75195Z" fill="black"/>
</svg>
