<svg width="25" height="25" viewBox="0 0 25 25" fill="none" xmlns="http://www.w3.org/2000/svg">
<path fill-rule="evenodd" clip-rule="evenodd" d="M8.74512 7.10791H19.8872V8.60791H8.74512V7.10791Z" fill="black"/>
<path fill-rule="evenodd" clip-rule="evenodd" d="M3.5 7.79792C3.5 5.93657 5.01861 4.43652 6.88019 4.43652C8.74178 4.43652 10.2604 5.93657 10.2604 7.79792C10.2604 9.65927 8.74178 11.1593 6.88019 11.1593C5.01861 11.1593 3.5 9.65927 3.5 7.79792ZM6.88019 5.93652C5.83687 5.93652 5 6.77512 5 7.79792C5 8.82071 5.83687 9.65931 6.88019 9.65931C7.92351 9.65931 8.76039 8.82071 8.76039 7.79792C8.76039 6.77512 7.92351 5.93652 6.88019 5.93652Z" fill="black"/>
<path fill-rule="evenodd" clip-rule="evenodd" d="M15.7549 16.7207H4.61285V18.2207H15.7549V16.7207Z" fill="black"/>
<path fill-rule="evenodd" clip-rule="evenodd" d="M21 17.4102C21 15.5489 19.4814 14.0488 17.6198 14.0488C15.7582 14.0488 14.2396 15.5489 14.2396 17.4102C14.2396 19.2716 15.7582 20.7716 17.6198 20.7716C19.4814 20.7716 21 19.2716 21 17.4102ZM17.6198 15.5488C18.6631 15.5488 19.5 16.3874 19.5 17.4102C19.5 18.433 18.6631 19.2716 17.6198 19.2716C16.5765 19.2716 15.7396 18.433 15.7396 17.4102C15.7396 16.3874 16.5765 15.5488 17.6198 15.5488Z" fill="black"/>
</svg>
