<svg width="25" height="25" viewBox="0 0 25 25" fill="none" xmlns="http://www.w3.org/2000/svg">
<path fill-rule="evenodd" clip-rule="evenodd" d="M9.64204 12.0166V17.1643H8.14204V12.0166H9.64204Z" fill="black"/>
<path fill-rule="evenodd" clip-rule="evenodd" d="M6.2803 13.8407H11.5022V15.3407H6.2803V13.8407Z" fill="black"/>
<path fill-rule="evenodd" clip-rule="evenodd" d="M14.3858 12.1276H15.9901V13.6276H14.3858V12.1276Z" fill="black"/>
<path fill-rule="evenodd" clip-rule="evenodd" d="M16.1516 15.6094H17.7559V17.1094H16.1516V15.6094Z" fill="black"/>
<path fill-rule="evenodd" clip-rule="evenodd" d="M8.57812 2.78467V3.53467C8.57812 3.82755 8.82461 4.09061 9.16061 4.09061H10.1923C11.7258 4.09607 12.9927 5.31708 12.9998 6.85521L12.9998 6.85869L12.9998 8.31593H11.4998V6.86063C11.4958 6.17434 10.9243 5.59386 10.1882 5.59061H9.16061C8.02479 5.59061 7.07812 4.68429 7.07812 3.53467V2.78467H8.57812Z" fill="black"/>
<path fill-rule="evenodd" clip-rule="evenodd" d="M8.48718 22.2847C4.25343 22.2847 0.821289 18.8525 0.821289 14.6188C0.821289 10.385 4.25343 6.95287 8.48719 6.95287L16.0118 6.95287C20.2456 6.95287 23.6777 10.385 23.6777 14.6188C23.6777 18.8525 20.2456 22.2847 16.0118 22.2847L8.48718 22.2847ZM2.32129 14.6188C2.32129 18.0241 5.08185 20.7847 8.48718 20.7847L16.0118 20.7847C19.4172 20.7847 22.1777 18.0241 22.1777 14.6188C22.1777 11.2134 19.4172 8.45287 16.0118 8.45287L8.48719 8.45287C5.08186 8.45287 2.32129 11.2134 2.32129 14.6188Z" fill="black"/>
</svg>
