<svg width="25" height="25" viewBox="0 0 25 25" fill="none" xmlns="http://www.w3.org/2000/svg">
<path d="M12.19 14.5101H12.34C14.02 14.5101 15.66 13.4601 16.65 11.7701L17.03 11.1201L15.73 10.3701L15.35 11.0201C14.78 12.0001 13.68 13.0901 12.26 13.0101C10.86 13.0601 9.77002 12.0001 9.20002 11.0201L8.82002 10.3701L7.52002 11.1201L7.90002 11.7701C8.89002 13.4701 10.54 14.5101 12.19 14.5101Z" fill="black"/>
<path fill-rule="evenodd" clip-rule="evenodd" d="M11.9501 21.1804L12.2501 21.3104L12.5501 21.1804C17.2601 19.0904 22.2801 14.9904 22.2501 9.74036C22.2401 6.63036 20.5201 4.15036 17.7701 3.26036C15.6601 2.58036 13.7301 3.09036 12.2501 4.70036C10.7701 3.09036 8.84006 2.58036 6.73006 3.26036C3.98006 4.15036 2.26006 6.63036 2.25006 9.74036C2.23006 15.0004 7.25006 19.1004 11.9501 21.1804ZM7.19006 4.69036C7.65006 4.54036 8.08006 4.47036 8.50006 4.47036V4.46036C9.72006 4.46036 10.7701 5.09036 11.6301 6.33036L12.2501 7.21036L12.8701 6.33036C14.0301 4.67036 15.5301 4.11036 17.3101 4.69036C19.8301 5.51036 20.7501 7.84036 20.7501 9.75036C20.7701 14.1704 16.2501 17.8204 12.2501 19.6704C8.25006 17.8204 3.73006 14.1704 3.75006 9.75036C3.75006 7.84036 4.66006 5.50036 7.19006 4.69036Z" fill="black"/>
</svg>
