<svg width="25" height="25" viewBox="0 0 25 25" fill="none" xmlns="http://www.w3.org/2000/svg">
<path fill-rule="evenodd" clip-rule="evenodd" d="M2.32255 8.3326C4.37758 12.6586 8.08903 15.3636 12.248 15.3654C12.2493 15.3654 12.2507 15.3654 12.252 15.3654V13.8654C12.2513 13.8654 12.2507 13.8654 12.25 13.8654C12.2493 13.8654 12.2487 13.8654 12.248 13.8654M12.25 13.8654C15.7047 13.8645 18.9566 11.617 20.8226 7.68897L21.1444 7.01152L22.4993 7.65515L22.1775 8.3326C20.1224 12.6586 16.411 15.3636 12.252 15.3654M12.25 13.8654C8.79534 13.8645 5.54341 11.617 3.67745 7.68897L3.35564 7.01152L2.00074 7.65515L2.32255 8.3326" fill="black"/>
<path fill-rule="evenodd" clip-rule="evenodd" d="M18.8397 10.8188L22.0115 13.9906L20.9508 15.0513L17.7791 11.8795L18.8397 10.8188Z" fill="black"/>
<path fill-rule="evenodd" clip-rule="evenodd" d="M5.58124 10.8188L2.40947 13.9906L3.47013 15.0513L6.6419 11.8795L5.58124 10.8188Z" fill="black"/>
<path fill-rule="evenodd" clip-rule="evenodd" d="M15.0935 13.358L16.3561 17.7081L14.9156 18.1263L13.6529 13.7762L15.0935 13.358Z" fill="black"/>
<path fill-rule="evenodd" clip-rule="evenodd" d="M9.32668 13.3583L8.06404 17.7084L9.50459 18.1265L10.7672 13.7764L9.32668 13.3583Z" fill="black"/>
</svg>
