<svg width="25" height="25" viewBox="0 0 25 25" fill="none" xmlns="http://www.w3.org/2000/svg">
<path fill-rule="evenodd" clip-rule="evenodd" d="M14.4065 11.5073H15.3019L19.6701 18.8344L19.1117 19.5644H5.63586L5.17377 18.8043L7.86392 13.8238H8.60629L11.5438 15.3062L14.4065 11.5073ZM14.761 13.5293L11.9872 17.2101L8.64945 15.5258L7.27826 18.0644H17.4647L14.761 13.5293Z" fill="black"/>
<path fill-rule="evenodd" clip-rule="evenodd" d="M8.75708 7.54541C8.11046 7.54561 7.58691 8.06929 7.58691 8.71595C7.58691 9.36275 8.11066 9.8865 8.75746 9.8865C9.40425 9.8865 9.928 9.36275 9.928 8.71595C9.928 8.07 9.405 7.54629 8.75708 7.54541ZM6.08691 8.71595C6.08691 7.24073 7.28224 6.04541 8.75746 6.04541H8.75823C10.2321 6.04693 11.428 7.24003 11.428 8.71595C11.428 10.1912 10.2327 11.3865 8.75746 11.3865C7.28224 11.3865 6.08691 10.1912 6.08691 8.71595Z" fill="black"/>
<path fill-rule="evenodd" clip-rule="evenodd" d="M2.25 22.604L2.25 2.604L22.25 2.604L22.25 22.604L2.25 22.604ZM3.75 21.104L20.75 21.104L20.75 4.104L3.75 4.104L3.75 21.104Z" fill="black"/>
</svg>
