<svg width="25" height="25" viewBox="0 0 25 25" fill="none" xmlns="http://www.w3.org/2000/svg">
<path fill-rule="evenodd" clip-rule="evenodd" d="M8.89709 7.87354C8.17647 7.87374 7.5918 8.45795 7.5918 9.1792C7.5918 9.90057 8.17667 10.4849 8.89746 10.4849C9.61895 10.4849 10.2029 9.90108 10.2031 9.17965C10.2023 8.4588 9.61792 7.87444 8.89709 7.87354ZM6.0918 9.1792C6.0918 7.62887 7.34878 6.37354 8.89746 6.37354H8.8982C10.4466 6.37506 11.7016 7.63009 11.7031 9.17846L11.7031 9.1792C11.7031 10.7293 10.4475 11.9849 8.89746 11.9849C7.34878 11.9849 6.0918 10.7295 6.0918 9.1792Z" fill="black"/>
<path fill-rule="evenodd" clip-rule="evenodd" d="M14.4614 11.5073H15.401L22.3147 21.2598L21.091 22.1273L14.943 13.455L10.9344 19.2882H10.0479L7.54864 17.0453L3.53415 22.3826L2.33539 21.4809L7.02073 15.2517H7.79595L10.3272 17.5234L14.4614 11.5073Z" fill="black"/>
<path fill-rule="evenodd" clip-rule="evenodd" d="M2.25 22.604L2.25 2.604L22.25 2.604L22.25 22.604L2.25 22.604ZM3.75 21.104L20.75 21.104L20.75 4.104L3.75 4.104L3.75 21.104Z" fill="black"/>
</svg>
