<svg width="25" height="25" viewBox="0 0 25 25" fill="none" xmlns="http://www.w3.org/2000/svg">
<path fill-rule="evenodd" clip-rule="evenodd" d="M9.10046 9.73927C9.10046 7.99908 10.5107 6.58887 12.2509 6.58887C13.9903 6.58887 15.4003 7.99928 15.4003 9.73927C15.4003 11.4785 13.9901 12.8887 12.2509 12.8887C10.5109 12.8887 9.10046 11.4787 9.10046 9.73927ZM12.2509 8.08887C11.3391 8.08887 10.6005 8.82751 10.6005 9.73927C10.6005 10.6499 11.3389 11.3887 12.2509 11.3887C13.1617 11.3887 13.9003 10.6501 13.9003 9.73927C13.9003 8.82731 13.1615 8.08887 12.2509 8.08887Z" fill="black"/>
<path fill-rule="evenodd" clip-rule="evenodd" d="M12.2495 2.88867C8.71322 2.88867 5.6882 6.08767 5.79986 9.68924C5.87884 12.2368 7.48388 14.257 9.26953 16.2085C9.44886 16.4045 9.63097 16.6008 9.81318 16.7973C10.5078 17.5462 11.2036 18.2965 11.7511 19.0318C11.9255 19.2661 12.0913 19.5069 12.2417 19.7544C12.3964 19.4975 12.5679 19.2482 12.7491 19.0061C13.2994 18.2708 13.9995 17.5265 14.6964 16.7855C14.8764 16.5942 15.0562 16.4031 15.2331 16.2124C17.0152 14.2917 18.6205 12.2948 18.7001 9.68957C18.8101 6.08751 15.7856 2.88867 12.2495 2.88867ZM12.9995 22.1387C12.9995 21.4554 13.3239 20.7414 13.95 19.9049C14.4447 19.2439 15.0676 18.5813 15.7559 17.849C15.9437 17.6492 16.1364 17.4442 16.3327 17.2327C18.1062 15.3212 20.101 12.9547 20.1994 9.73538C20.3342 5.32228 16.6666 1.38867 12.2495 1.38867C7.83264 1.38867 4.16375 5.32223 4.30058 9.73572C4.39855 12.8956 6.39315 15.287 8.16291 17.2211C8.36125 17.4378 8.55603 17.648 8.7459 17.8528C9.43178 18.5928 10.0536 19.2637 10.5479 19.9276C11.1778 20.7737 11.4995 21.4821 11.4995 22.1387H12.9995Z" fill="black"/>
</svg>
