<svg width="25" height="24" viewBox="0 0 25 24" fill="none" xmlns="http://www.w3.org/2000/svg">
<path fill-rule="evenodd" clip-rule="evenodd" d="M9.01367 10.8064C9.01367 9.01834 10.4627 7.56934 12.2507 7.56934C14.038 7.56934 15.4868 9.01854 15.4868 10.8064C15.4868 12.5934 14.0378 14.0424 12.2507 14.0424C10.4629 14.0424 9.01367 12.5936 9.01367 10.8064ZM12.2507 9.06934C11.2911 9.06934 10.5137 9.84677 10.5137 10.8064C10.5137 11.7648 11.2909 12.5424 12.2507 12.5424C13.2093 12.5424 13.9868 11.765 13.9868 10.8064C13.9868 9.84657 13.2092 9.06934 12.2507 9.06934Z" fill="black"/>
<path fill-rule="evenodd" clip-rule="evenodd" d="M12.2498 3.50012C8.56991 3.50012 5.42408 6.82786 5.54022 10.5741C5.62304 13.2456 7.32463 15.736 9.13068 17.6226C10.0208 18.5524 10.9077 19.3058 11.5726 19.8268C11.8424 20.0382 12.0747 20.2106 12.2546 20.3402C12.4336 20.2138 12.6643 20.0459 12.932 19.8399C13.596 19.3288 14.4819 18.5873 15.371 17.6659C17.1728 15.7987 18.8767 13.308 18.9602 10.5744C19.0747 6.8277 15.9294 3.50012 12.2498 3.50012ZM12.2498 21.25C11.8404 21.8785 11.8402 21.8784 11.84 21.8782L11.8394 21.8778L11.8377 21.8767L11.8324 21.8732L11.8139 21.861C11.7982 21.8506 11.7758 21.8356 11.7472 21.8162C11.6898 21.7773 11.6074 21.7206 11.5033 21.6469C11.2953 21.4996 11.0006 21.2842 10.6475 21.0075C9.94242 20.4551 8.99889 19.6541 8.04715 18.6599C6.16945 16.6985 4.14145 13.8625 4.04094 10.6206C3.89962 6.06242 7.68933 2.00012 12.2498 2.00012C16.8103 2.00012 20.5988 6.06246 20.4595 10.6202C20.3587 13.9214 18.3325 16.7571 16.4504 18.7075C15.4975 19.695 14.5529 20.4852 13.8469 21.0285C13.4934 21.3006 13.1982 21.512 12.9898 21.6564C12.8856 21.7286 12.8029 21.7841 12.7454 21.8221C12.7167 21.8412 12.6942 21.8559 12.6784 21.8661L12.6598 21.878L12.6544 21.8815L12.6527 21.8826L12.6521 21.883C12.6519 21.8831 12.6517 21.8833 12.2498 21.25ZM12.2498 21.25L12.6517 21.8833L12.2445 22.1417L11.8404 21.8785L12.2498 21.25Z" fill="black"/>
</svg>
