<svg width="25" height="25" viewBox="0 0 25 25" fill="none" xmlns="http://www.w3.org/2000/svg">
<path fill-rule="evenodd" clip-rule="evenodd" d="M8.5542 22.1387L8.5542 16.0137L10.0542 16.0137L10.0542 20.6387L19.983 20.6387L19.983 3.63867L10.0542 3.63867L10.0542 8.26367L8.5542 8.26367L8.5542 2.13867L21.483 2.13867L21.483 22.1387L8.5542 22.1387Z" fill="black"/>
<path fill-rule="evenodd" clip-rule="evenodd" d="M18.4565 12.8887L3.01727 12.8887L3.01727 11.3887L18.4565 11.3887L18.4565 12.8887Z" fill="black"/>
<path fill-rule="evenodd" clip-rule="evenodd" d="M17.7064 11.3887C14.7614 11.3887 12.3608 13.9735 12.3608 16.7342L12.3608 17.4842L13.8608 17.4842L13.8608 16.7342C13.8608 14.7699 15.6215 12.8887 17.7064 12.8887L18.4564 12.8887L18.4564 11.3887L17.7064 11.3887Z" fill="black"/>
<path fill-rule="evenodd" clip-rule="evenodd" d="M17.7064 12.8887C14.7614 12.8887 12.3608 10.3038 12.3608 7.54316L12.3608 6.79316L13.8608 6.79316L13.8608 7.54316C13.8608 9.50748 15.6215 11.3887 17.7064 11.3887L18.4564 11.3887L18.4564 12.8887L17.7064 12.8887Z" fill="black"/>
</svg>
