<svg width="25" height="25" viewBox="0 0 25 25" fill="none" xmlns="http://www.w3.org/2000/svg">
<path fill-rule="evenodd" clip-rule="evenodd" d="M13.7993 2.13867L13.7993 8.26367L12.2993 8.26367L12.2993 3.63867L3.27538 3.63867L3.27538 20.6387L12.2993 20.6387L12.2993 16.0137L13.7993 16.0137L13.7993 22.1387L1.77538 22.1387L1.77538 2.13867L13.7993 2.13867Z" fill="black"/>
<path fill-rule="evenodd" clip-rule="evenodd" d="M22.7246 11.3896L7.28534 11.3896L7.28534 12.8896L22.7246 12.8896L22.7246 11.3896Z" fill="black"/>
<path fill-rule="evenodd" clip-rule="evenodd" d="M21.9744 12.8896C19.0294 12.8896 16.6289 10.3048 16.6289 7.54414L16.6289 6.79414L18.1289 6.79414L18.1289 7.54414C18.1289 9.50846 19.8896 11.3896 21.9744 11.3896L22.7244 11.3896L22.7244 12.8896L21.9744 12.8896Z" fill="black"/>
<path fill-rule="evenodd" clip-rule="evenodd" d="M21.9744 11.3896C19.0294 11.3896 16.6289 13.9745 16.6289 16.7352L16.6289 17.4852L18.1289 17.4852L18.1289 16.7352C18.1289 14.7708 19.8896 12.8896 21.9744 12.8896L22.7244 12.8896L22.7244 11.3896L21.9744 11.3896Z" fill="black"/>
</svg>
