<svg width="25" height="25" viewBox="0 0 25 25" fill="none" xmlns="http://www.w3.org/2000/svg">
<path fill-rule="evenodd" clip-rule="evenodd" d="M6.46875 15.5972C4.96746 15.5972 3.75 16.8146 3.75 18.3159C3.75 19.8173 4.96714 21.0347 6.46875 21.0347C7.97004 21.0347 9.1875 19.8172 9.1875 18.3159C9.1875 16.8143 7.97009 15.5972 6.46875 15.5972ZM2.25 18.3159C2.25 15.9862 4.13904 14.0972 6.46875 14.0972C8.79841 14.0972 10.6875 15.9858 10.6875 18.3159C10.6875 20.6456 8.79846 22.5347 6.46875 22.5347C4.13861 22.5347 2.25 20.6456 2.25 18.3159Z" fill="black"/>
<path fill-rule="evenodd" clip-rule="evenodd" d="M18.0312 15.5972C16.53 15.5972 15.3125 16.8146 15.3125 18.3159C15.3125 19.8173 16.5296 21.0347 18.0312 21.0347C19.5325 21.0347 20.75 19.8172 20.75 18.3159C20.75 16.8143 19.5326 15.5972 18.0312 15.5972ZM13.8125 18.3159C13.8125 15.9862 15.7015 14.0972 18.0312 14.0972C20.3609 14.0972 22.25 15.9858 22.25 18.3159C22.25 20.6456 20.361 22.5347 18.0312 22.5347C15.7011 22.5347 13.8125 20.6456 13.8125 18.3159Z" fill="black"/>
<path fill-rule="evenodd" clip-rule="evenodd" d="M12.25 4.03467C10.7487 4.03467 9.53125 5.25213 9.53125 6.75342C9.53125 8.25476 10.7484 9.47217 12.25 9.47217C13.7513 9.47217 14.9688 8.2547 14.9688 6.75342C14.9688 5.25181 13.7513 4.03467 12.25 4.03467ZM8.03125 6.75342C8.03125 4.4237 9.92029 2.53467 12.25 2.53467C14.5797 2.53467 16.4688 4.42328 16.4688 6.75342C16.4688 9.08313 14.5797 10.9722 12.25 10.9722C9.91986 10.9722 8.03125 9.08308 8.03125 6.75342Z" fill="black"/>
</svg>
