<svg width="25" height="25" viewBox="0 0 25 25" fill="none" xmlns="http://www.w3.org/2000/svg">
<path fill-rule="evenodd" clip-rule="evenodd" d="M5.31186 9.07645C5.31186 5.24482 8.418 2.13867 12.2496 2.13867V3.63867C9.24643 3.63867 6.81186 6.07325 6.81186 9.07645V13.9647L5.19922 15.5993V17.2459H19.3V15.5993L17.6874 13.9647V9.07645H19.1874V13.3493L20.8 14.984V18.7459H3.69922V14.984L5.31186 13.3493V9.07645Z" fill="black"/>
<path fill-rule="evenodd" clip-rule="evenodd" d="M8.33398 18.2221V17.9961H9.83398V18.2221C9.83398 19.5568 10.916 20.6388 12.2507 20.6388C13.5853 20.6388 14.6673 19.5568 14.6673 18.2221V17.9961H16.1673V18.2221C16.1673 20.3852 14.4138 22.1388 12.2507 22.1388C10.0875 22.1388 8.33398 20.3852 8.33398 18.2221Z" fill="black"/>
<path fill-rule="evenodd" clip-rule="evenodd" d="M16.5879 3.36829C15.7071 3.36829 14.9932 4.08227 14.9932 4.96301C14.9932 5.84376 15.7071 6.55774 16.5879 6.55774C17.4686 6.55774 18.1826 5.84376 18.1826 4.96301C18.1826 4.08227 17.4686 3.36829 16.5879 3.36829ZM13.4932 4.96301C13.4932 3.25384 14.8787 1.86829 16.5879 1.86829C18.2971 1.86829 19.6826 3.25384 19.6826 4.96301C19.6826 6.67218 18.2971 8.05774 16.5879 8.05774C14.8787 8.05774 13.4932 6.67218 13.4932 4.96301Z" fill="black"/>
</svg>
