<svg width="25" height="25" viewBox="0 0 25 25" fill="none" xmlns="http://www.w3.org/2000/svg">
<path fill-rule="evenodd" clip-rule="evenodd" d="M11.4997 3.58637V2.13843H12.9997V3.58637C16.5454 3.96086 19.3083 6.9606 19.3083 10.6056V13.3988C19.3083 15.133 19.8355 16.8263 20.8199 18.254L21.6306 19.4298H2.86874L3.67941 18.254C4.66384 16.8263 5.19101 15.133 5.19101 13.3988V10.6057C5.19101 6.9606 7.95388 3.96086 11.4997 3.58637ZM12.2497 5.047C9.1797 5.047 6.69101 7.53569 6.69101 10.6057V13.3988C6.69101 14.9791 6.3186 16.5304 5.61208 17.9298H18.8872C18.1807 16.5304 17.8083 14.9791 17.8083 13.3988V10.6056C17.8083 7.53569 15.3196 5.047 12.2497 5.047Z" fill="black"/>
<path fill-rule="evenodd" clip-rule="evenodd" d="M8.27167 18.9101V18.6797H9.77167V18.9101C9.77167 20.279 10.8813 21.3886 12.2502 21.3886C13.619 21.3886 14.7287 20.279 14.7287 18.9101V18.6797H16.2287V18.9101C16.2287 21.1074 14.4475 22.8886 12.2502 22.8886C10.0529 22.8886 8.27167 21.1074 8.27167 18.9101Z" fill="black"/>
</svg>
