<svg width="25" height="25" viewBox="0 0 25 25" fill="none" xmlns="http://www.w3.org/2000/svg">
<path fill-rule="evenodd" clip-rule="evenodd" d="M3.8252 2.13867H15.1375L20.6745 7.90515V22.1387H3.8252V2.13867ZM5.3252 3.63867V20.6387H19.1745V8.50871L14.4983 3.63867H5.3252Z" fill="black"/>
<path fill-rule="evenodd" clip-rule="evenodd" d="M15.0918 2.69336V8.03878H20.1989V9.53878H13.5918V2.69336H15.0918Z" fill="black"/>
<path fill-rule="evenodd" clip-rule="evenodd" d="M10.3633 18.4219L10.3633 9.0755L11.8633 9.0755L11.8633 18.4219L10.3633 18.4219Z" fill="black"/>
<path fill-rule="evenodd" clip-rule="evenodd" d="M11.8633 17.6718C11.8633 15.826 10.2545 14.335 8.52648 14.335L7.77648 14.335L7.77648 15.835L8.52648 15.835C9.45815 15.835 10.3633 16.6862 10.3633 17.6718L10.3633 18.4218L11.8633 18.4218L11.8633 17.6718Z" fill="black"/>
<path fill-rule="evenodd" clip-rule="evenodd" d="M10.3633 17.6718C10.3633 15.826 11.9721 14.335 13.7001 14.335L14.4501 14.335L14.4501 15.835L13.7001 15.835C12.7684 15.835 11.8633 16.6862 11.8633 17.6718L11.8633 18.4218L10.3633 18.4218L10.3633 17.6718Z" fill="black"/>
</svg>
