<svg width="25" height="25" viewBox="0 0 25 25" fill="none" xmlns="http://www.w3.org/2000/svg">
<path fill-rule="evenodd" clip-rule="evenodd" d="M3.8252 2.13867H15.1375L20.6745 7.90515V22.1387H3.8252V2.13867ZM5.3252 3.63867V20.6387H19.1745V8.50871L14.4983 3.63867H5.3252Z" fill="black"/>
<path fill-rule="evenodd" clip-rule="evenodd" d="M15.0928 2.69336V8.03878H20.1998V9.53878H13.5928V2.69336H15.0928Z" fill="black"/>
<path fill-rule="evenodd" clip-rule="evenodd" d="M10.3643 9.86963L10.3643 19.216L11.8643 19.216L11.8643 9.86963L10.3643 9.86963Z" fill="black"/>
<path fill-rule="evenodd" clip-rule="evenodd" d="M11.8643 10.6197C11.8643 12.4655 10.2555 13.9565 8.52746 13.9565L7.77746 13.9565L7.77746 12.4565L8.52746 12.4565C9.45913 12.4565 10.3643 11.6053 10.3643 10.6197L10.3643 9.86974L11.8643 9.86974L11.8643 10.6197Z" fill="black"/>
<path fill-rule="evenodd" clip-rule="evenodd" d="M10.3643 10.6197C10.3643 12.4655 11.9731 13.9565 13.7011 13.9565L14.4511 13.9565L14.4511 12.4565L13.7011 12.4565C12.7694 12.4565 11.8643 11.6053 11.8643 10.6197L11.8643 9.86974L10.3643 9.86974L10.3643 10.6197Z" fill="black"/>
</svg>
