<svg width="25" height="24" viewBox="0 0 25 24" fill="none" xmlns="http://www.w3.org/2000/svg">
<path fill-rule="evenodd" clip-rule="evenodd" d="M12.216 3.5C10.1884 3.5 8.54492 5.14275 8.54492 7.16973C8.54492 9.19672 10.1884 10.8395 12.216 10.8395C14.2421 10.8395 15.8857 9.19686 15.8857 7.16973C15.8857 5.1426 14.2421 3.5 12.216 3.5ZM7.04492 7.16973C7.04492 4.31374 9.36055 2 12.216 2C15.0702 2 17.3857 4.31389 17.3857 7.16973C17.3857 10.0256 15.0702 12.3395 12.216 12.3395C9.36055 12.3395 7.04492 10.0257 7.04492 7.16973Z" fill="black"/>
<path fill-rule="evenodd" clip-rule="evenodd" d="M6.12892 19.185C7.91289 20.1222 9.98939 20.5057 12.2481 20.5001H12.2517C14.5104 20.5057 16.5869 20.1222 18.3708 19.185C17.3464 16.7392 15.0595 15.5617 12.2518 15.5689H12.248C9.43683 15.5617 7.15365 16.7364 6.12892 19.185ZM12.2499 14.0689C8.75048 14.0605 5.63352 15.6881 4.49194 19.2981L4.31468 19.8586L4.81665 20.1646C7.02101 21.5084 9.58365 22.0064 12.2499 22.0001C14.9162 22.0064 17.4788 21.5084 19.6832 20.1646L20.1851 19.8586L20.0079 19.2981C18.8675 15.6917 15.7459 14.0605 12.2499 14.0689Z" fill="black"/>
</svg>
