<svg width="25" height="25" viewBox="0 0 25 25" fill="none" xmlns="http://www.w3.org/2000/svg">
<path fill-rule="evenodd" clip-rule="evenodd" d="M2.75 2.63867H11.0556V10.9442H2.75V2.63867ZM4.25 4.13867V9.44423H9.55556V4.13867H4.25Z" fill="black"/>
<path fill-rule="evenodd" clip-rule="evenodd" d="M2.75 13.3331H11.0556V21.6387H2.75V13.3331ZM4.25 14.8331V20.1387H9.55556V14.8331H4.25Z" fill="black"/>
<path fill-rule="evenodd" clip-rule="evenodd" d="M13.4445 13.3331H21.75V21.6387H13.4445V13.3331ZM14.9445 14.8331V20.1387H20.25V14.8331H14.9445Z" fill="black"/>
<path fill-rule="evenodd" clip-rule="evenodd" d="M13.4445 2.63867H17.375V4.13867H14.9445V8.2584H13.4445V2.63867ZM18.5486 2.63867H21.75V5.84006H20.25V4.13867H18.5486V2.63867ZM21.75 7.01367V10.9442H18.5486V9.44423H20.25V7.01367H21.75ZM13.4445 9.44423H17.1646V10.9442H13.4445V9.44423Z" fill="black"/>
<path fill-rule="evenodd" clip-rule="evenodd" d="M19.0967 8.72266H15.7676V5.00427H17.2676V7.22266H19.0967V8.72266Z" fill="black"/>
<path fill-rule="evenodd" clip-rule="evenodd" d="M18.1935 6.50415L18.1935 4.99415L19.6935 4.99415L19.6935 6.50415L18.1935 6.50415Z" fill="black"/>
<path fill-rule="evenodd" clip-rule="evenodd" d="M6.15234 7.58984L6.15234 5.99262L7.65234 5.99262L7.65234 7.58984L6.15234 7.58984Z" fill="black"/>
<path fill-rule="evenodd" clip-rule="evenodd" d="M6.15234 18.2842L6.15234 16.687L7.65234 16.687L7.65234 18.2842L6.15234 18.2842Z" fill="black"/>
<path fill-rule="evenodd" clip-rule="evenodd" d="M16.8477 18.2842L16.8477 16.687L18.3477 16.687L18.3477 18.2842L16.8477 18.2842Z" fill="black"/>
</svg>
