<svg width="25" height="24" viewBox="0 0 25 24" fill="none" xmlns="http://www.w3.org/2000/svg">
<path fill-rule="evenodd" clip-rule="evenodd" d="M12.2502 9.06238C10.6278 9.06238 9.31265 10.3776 9.31265 11.9999C9.31265 13.6223 10.6278 14.9375 12.2502 14.9375C13.8726 14.9375 15.1877 13.6223 15.1877 11.9999C15.1877 10.3776 13.8726 9.06238 12.2502 9.06238ZM7.81265 11.9999C7.81265 9.54913 9.79941 7.56238 12.2502 7.56238C14.701 7.56238 16.6877 9.54913 16.6877 11.9999C16.6877 14.4507 14.701 16.4375 12.2502 16.4375C9.79941 16.4375 7.81265 14.4507 7.81265 11.9999Z" fill="black"/>
<path fill-rule="evenodd" clip-rule="evenodd" d="M9.90082 1.84656L12.2506 3.69542L14.6004 1.84656L19.8696 4.88873L19.4434 7.84801L22.2177 8.95787V15.0422L19.4424 16.1525L19.8686 19.1112L14.5994 22.1533L12.2506 20.3053L9.90191 22.1533L4.63272 19.1112L5.0588 16.153L2.28223 15.0422V8.95787L5.0578 7.8475L4.63163 4.88873L9.90082 1.84656ZM6.26109 5.68001L6.71073 8.80182L3.78223 9.97337V14.0267L6.71173 15.1986L6.26217 18.3199L9.77245 20.3466L12.2506 18.3967L14.7288 20.3466L18.2391 18.3199L17.7895 15.1981L20.7177 14.0267V9.97337L17.7905 8.80233L18.2402 5.68001L14.7299 3.65335L12.2506 5.60407L9.77137 3.65335L6.26109 5.68001Z" fill="black"/>
</svg>
