<svg width="25" height="25" viewBox="0 0 25 25" fill="none" xmlns="http://www.w3.org/2000/svg">
<path fill-rule="evenodd" clip-rule="evenodd" d="M14.3505 12.1387C14.3505 10.979 13.4104 10.0388 12.2506 10.0388C11.0909 10.0388 10.1507 10.979 10.1507 12.1387C10.1507 13.2985 11.0909 14.2386 12.2506 14.2386C13.4104 14.2386 14.3505 13.2985 14.3505 12.1387ZM12.2506 8.53882C14.2388 8.53882 15.8505 10.1505 15.8505 12.1387C15.8505 14.1269 14.2388 15.7386 12.2506 15.7386C10.2624 15.7386 8.65071 14.1269 8.65071 12.1387C8.65071 10.1505 10.2624 8.53882 12.2506 8.53882Z" fill="black"/>
<path fill-rule="evenodd" clip-rule="evenodd" d="M6.81699 2.72852L17.683 2.72852L23.116 12.1388L17.683 21.549H6.81698L1.38397 12.1388L6.81699 2.72852ZM7.68301 4.22852L3.11602 12.1388L7.68301 20.049H16.817L21.384 12.1388L16.817 4.22852L7.68301 4.22852Z" fill="black"/>
</svg>
