<svg width="25" height="25" viewBox="0 0 25 25" fill="none" xmlns="http://www.w3.org/2000/svg">
<path fill-rule="evenodd" clip-rule="evenodd" d="M10.3086 8.70935L15.2232 13.6239L14.1625 14.6846L9.24793 9.77001L10.3086 8.70935Z" fill="black"/>
<path fill-rule="evenodd" clip-rule="evenodd" d="M15.2232 9.77001L10.3086 14.6846L9.24793 13.6239L14.1625 8.70935L15.2232 9.77001Z" fill="black"/>
<path fill-rule="evenodd" clip-rule="evenodd" d="M3.63281 2.854H20.8685V12.6543C20.8685 16.2788 18.6875 18.7136 16.6228 20.2005C15.5859 20.9473 14.5538 21.4746 13.7831 21.8152C13.3968 21.9859 13.0734 22.1109 12.8442 22.1939C12.7296 22.2355 12.6384 22.2666 12.5744 22.2877C12.5424 22.2983 12.5173 22.3064 12.4994 22.3121L12.478 22.3187L12.4716 22.3207L12.4694 22.3214C12.4691 22.3215 12.468 22.3218 12.2506 21.604C12.0333 22.3218 12.033 22.3217 12.0327 22.3216L12.0297 22.3207L12.0232 22.3187L12.0019 22.3121C11.984 22.3064 11.9588 22.2983 11.9268 22.2877C11.8629 22.2666 11.7716 22.2355 11.657 22.1939C11.4279 22.1109 11.1045 21.9859 10.7181 21.8152C9.94751 21.4746 8.91538 20.9473 7.87843 20.2005C5.81372 18.7136 3.63281 16.2788 3.63281 12.6543V2.854ZM12.2506 21.604L12.0327 22.3216L12.2506 22.3876L12.468 22.3218L12.2506 21.604ZM12.2506 20.8132C12.2761 20.8042 12.3037 20.7944 12.3332 20.7837C12.5343 20.7108 12.8256 20.5984 13.1768 20.4432C13.8814 20.1318 14.8162 19.6531 15.7463 18.9833C17.6155 17.6372 19.3685 15.5972 19.3685 12.6543V4.354H5.13281V12.6543C5.13281 15.5972 6.88581 17.6372 8.75501 18.9833C9.68502 19.6531 10.6199 20.1318 11.3244 20.4432C11.6757 20.5984 11.967 20.7108 12.1681 20.7837C12.1976 20.7944 12.2251 20.8042 12.2506 20.8132Z" fill="black"/>
</svg>
