<svg width="25" height="25" viewBox="0 0 25 25" fill="none" xmlns="http://www.w3.org/2000/svg">
<path fill-rule="evenodd" clip-rule="evenodd" d="M12.0956 11.9141C10.7639 11.9141 9.68457 12.9931 9.68457 14.3261C9.68457 15.6578 10.7638 16.7371 12.0956 16.7371C13.4277 16.7371 14.5076 15.6575 14.5076 14.3261C14.5076 12.9934 13.4275 11.9141 12.0956 11.9141ZM8.18457 14.3261C8.18457 12.165 9.9352 10.4141 12.0956 10.4141C14.2556 10.4141 16.0076 12.1647 16.0076 14.3261C16.0076 16.4866 14.2555 18.2371 12.0956 18.2371C9.93536 18.2371 8.18457 16.4863 8.18457 14.3261Z" fill="black"/>
<path fill-rule="evenodd" clip-rule="evenodd" d="M2.16923 14.0035C4.22425 9.67745 7.93571 6.97244 12.0947 6.9707C12.096 6.9707 12.0973 6.9707 12.0987 6.9707V8.4707C12.098 8.4707 12.0973 8.4707 12.0967 8.4707C12.096 8.4707 12.0953 8.4707 12.0947 8.4707M12.0967 8.4707C15.5513 8.47157 18.8033 10.7191 20.6692 14.6471L20.991 15.3245L22.3459 14.6809L22.0241 14.0035C19.9691 9.67745 16.2577 6.97244 12.0987 6.9707M12.0967 8.4707C8.64202 8.47157 5.39009 10.7191 3.52413 14.6471L3.20231 15.3245L1.84742 14.6809L2.16923 14.0035" fill="black"/>
</svg>
