<svg width="25" height="24" viewBox="0 0 25 24" fill="none" xmlns="http://www.w3.org/2000/svg">
<path fill-rule="evenodd" clip-rule="evenodd" d="M12.25 0.843628L14.5981 6.33109L20.1388 4.11127L17.9189 9.65189L23.4064 12L17.9189 14.3482L20.1388 19.8888L14.5981 17.669L12.25 23.1565L9.90183 17.669L4.36121 19.8888L6.58103 14.3482L1.09357 12L6.58103 9.65189L4.36121 4.11127L9.90183 6.33109L12.25 0.843628ZM12.25 4.65647L10.7043 8.26853L7.05729 6.80735L8.51846 10.4544L4.9064 12L8.51846 13.5457L7.05729 17.1927L10.7043 15.7316L12.25 19.3436L13.7956 15.7316L17.4427 17.1927L15.9815 13.5457L19.5936 12L15.9815 10.4544L17.4427 6.80735L13.7956 8.26853L12.25 4.65647Z" fill="black"/>
</svg>
