<svg width="25" height="24" viewBox="0 0 25 24" fill="none" xmlns="http://www.w3.org/2000/svg">
<path fill-rule="evenodd" clip-rule="evenodd" d="M11.4785 2.67802C11.3927 3.0078 11.0725 3.92158 10.9121 4.2944C9.88928 6.6715 8.11812 8.6731 5.87488 9.98697C5.10405 10.4385 4.02154 10.9055 3.17724 11.1507L2.80224 11.2597V11.9884V12.7171L2.94463 12.7539C3.3074 12.8476 4.22758 13.1773 4.66268 13.3694C5.57707 13.7733 6.57964 14.3825 7.37537 15.0179C7.84916 15.3962 8.83619 16.3832 9.21457 16.8569C10.1283 18.001 10.8402 19.3187 11.2847 20.6885C11.3961 21.0317 11.5004 21.3467 11.5164 21.3885L11.5456 21.4645L12.2544 21.4555L12.9631 21.4465L13.1234 20.9272C13.5788 19.4521 14.2951 18.0942 15.2529 16.8904C15.6375 16.4071 16.4521 15.578 16.9616 15.1514C17.859 14.4002 18.8851 13.7711 19.9724 13.3056C20.3195 13.157 21.2417 12.8358 21.5554 12.7541L21.6978 12.7171V11.9864V11.2556L21.4717 11.1955C21.0637 11.0869 20.2824 10.8063 19.8216 10.6028C17.4263 9.54517 15.415 7.71034 14.1309 5.41153C13.8647 4.93506 13.6873 4.56431 13.4704 4.03126C13.3251 3.67415 13.0516 2.85872 13.0053 2.64452L12.9818 2.53564H12.2486H11.5155L11.4785 2.67802ZM18.9717 3.05932C18.9433 3.26943 18.7685 3.66845 18.5893 3.93216C18.1444 4.58672 17.5078 5.03489 16.7896 5.1992C16.6985 5.22004 16.7114 5.22791 16.9279 5.28336C17.3895 5.40161 17.8353 5.67769 18.2324 6.09138C18.6121 6.48681 18.8382 6.86935 18.9499 7.30516C19.005 7.52026 19.0132 7.53396 19.0332 7.44341C19.0962 7.15853 19.2084 6.86607 19.3445 6.63214C19.5433 6.2903 20.0813 5.74827 20.4113 5.55722C20.6688 5.40821 21.0994 5.24976 21.2514 5.24815C21.376 5.24681 21.2952 5.19971 21.1115 5.16661C20.6259 5.07917 19.9361 4.59784 19.5316 4.06429C19.3524 3.82778 19.1006 3.31811 19.0661 3.1219C19.0276 2.90314 18.9957 2.88197 18.9717 3.05932ZM12.4343 5.40798C12.5264 5.60509 12.713 5.96281 12.8488 6.2029C14.1934 8.57863 16.2596 10.5378 18.6556 11.7089C18.9448 11.8502 19.1823 11.9735 19.1833 11.9828C19.1843 11.9921 18.9706 12.1051 18.7085 12.234C15.9757 13.5781 13.6836 15.8987 12.4112 18.61L12.2488 18.9561L12.0151 18.4832C11.7028 17.8513 11.5336 17.558 11.125 16.9407C10.0916 15.3793 8.85311 14.141 7.29161 13.1076C6.66819 12.6951 6.35447 12.5145 5.74013 12.2144L5.27588 11.9877L5.65772 11.8062C8.37221 10.516 10.6514 8.25733 11.9981 5.52298C12.1267 5.26182 12.2398 5.04849 12.2493 5.04889C12.2589 5.04929 12.3422 5.2109 12.4343 5.40798Z" fill="black"/>
</svg>
