<svg width="25" height="24" viewBox="0 0 25 24" fill="none" xmlns="http://www.w3.org/2000/svg">
<path fill-rule="evenodd" clip-rule="evenodd" d="M14.7105 4.08203V7.82053H13.2105V4.08203H14.7105Z" fill="black"/>
<path fill-rule="evenodd" clip-rule="evenodd" d="M14.7105 16.5781V19.9503H13.2105V16.5781H14.7105Z" fill="black"/>
<path fill-rule="evenodd" clip-rule="evenodd" d="M14.7105 9.2196V15.179H13.2105V9.2196H14.7105Z" fill="black"/>
<path fill-rule="evenodd" clip-rule="evenodd" d="M2.25 3.8501H22.25V10.7617H21.5C20.7906 10.7617 20.2366 11.3222 20.2366 12.0011C20.2366 12.6794 20.7901 13.2394 21.5 13.2394H22.25V20.1501H2.25V13.2394H3C3.70991 13.2394 4.26343 12.6794 4.26343 12.0011C4.26343 11.3609 3.74966 10.8398 3 10.8398H2.25V3.8501ZM3.75 5.3501V9.43647C4.88872 9.73661 5.76343 10.7106 5.76343 12.0011C5.76343 13.2651 4.90887 14.3157 3.75 14.6377V18.6501H20.75V14.6377C19.5911 14.3157 18.7366 13.2651 18.7366 12.0011C18.7366 10.7373 19.5909 9.68577 20.75 9.36351V5.3501H3.75Z" fill="black"/>
</svg>
