<svg width="25" height="25" viewBox="0 0 25 25" fill="none" xmlns="http://www.w3.org/2000/svg">
<path fill-rule="evenodd" clip-rule="evenodd" d="M2.25 4.38464H22.25V11.2963H21.5C20.7906 11.2963 20.2366 11.8568 20.2366 12.5356C20.2366 13.2139 20.7901 13.774 21.5 13.774H22.25V20.6846H2.25V13.774H3C3.70991 13.774 4.26343 13.2139 4.26343 12.5356C4.26343 11.8954 3.74966 11.3744 3 11.3744H2.25V4.38464ZM3.75 5.88464V9.97101C4.88872 10.2712 5.76343 11.2452 5.76343 12.5356C5.76343 13.7997 4.90887 14.8503 3.75 15.1722V19.1846H20.75V15.1722C19.5911 14.8503 18.7366 13.7997 18.7366 12.5356C18.7366 11.2719 19.5909 10.2203 20.75 9.89805V5.88464H3.75Z" fill="black"/>
<path fill-rule="evenodd" clip-rule="evenodd" d="M12.2491 7.60083L13.7238 10.396L16.8379 10.9349L14.6353 13.2012L15.0852 16.3294L12.2491 14.9349L9.41297 16.3294L9.86284 13.2012L7.66017 10.9349L10.7743 10.396L12.2491 7.60083ZM12.2491 10.8153L11.7568 11.7483L10.7173 11.9282L11.4526 12.6847L11.3024 13.7289L12.2491 13.2634L13.1957 13.7289L13.0456 12.6847L13.7808 11.9282L12.7413 11.7483L12.2491 10.8153Z" fill="black"/>
</svg>
