<svg width="25" height="24" viewBox="0 0 25 24" fill="none" xmlns="http://www.w3.org/2000/svg">
<path fill-rule="evenodd" clip-rule="evenodd" d="M12.25 3.5C7.55521 3.5 3.75 7.30521 3.75 12C3.75 16.6948 7.55521 20.5 12.25 20.5C16.9448 20.5 20.75 16.6948 20.75 12C20.75 7.30521 16.9448 3.5 12.25 3.5ZM2.25 12C2.25 6.47679 6.72679 2 12.25 2C17.7732 2 22.25 6.47679 22.25 12C22.25 17.5232 17.7732 22 12.25 22C6.72679 22 2.25 17.5232 2.25 12Z" fill="black"/>
<path fill-rule="evenodd" clip-rule="evenodd" d="M12.6621 7.09619V12.2673L16.7104 14.6823L15.942 15.9705L11.1621 13.1191V7.09619H12.6621Z" fill="black"/>
</svg>
