<svg width="25" height="25" viewBox="0 0 25 25" fill="none" xmlns="http://www.w3.org/2000/svg">
<path fill-rule="evenodd" clip-rule="evenodd" d="M13.0381 6.68799H16.6905V8.18799H13.0381V6.68799Z" fill="black"/>
<path fill-rule="evenodd" clip-rule="evenodd" d="M11.958 10.2988H16.6928V11.7988H11.958V10.2988Z" fill="black"/>
<path fill-rule="evenodd" clip-rule="evenodd" d="M12.998 18.5826V22.854H11.498V18.5826H12.998Z" fill="black"/>
<path fill-rule="evenodd" clip-rule="evenodd" d="M12.2482 3.854C10.6249 3.854 9.30273 5.17734 9.30273 6.81664V11.9906C9.30273 13.6297 10.6247 14.9523 12.2482 14.9523C13.8726 14.9523 15.1937 13.6298 15.1937 11.9906V6.81664C15.1937 5.17722 13.8723 3.854 12.2482 3.854ZM7.80273 6.81664C7.80273 4.35547 9.78997 2.354 12.2482 2.354C14.7075 2.354 16.6937 4.3556 16.6937 6.81664V11.9906C16.6937 14.4519 14.7073 16.4523 12.2482 16.4523C9.79022 16.4523 7.80273 14.452 7.80273 11.9906V6.81664Z" fill="black"/>
<path fill-rule="evenodd" clip-rule="evenodd" d="M5.72168 11.2701V12.0201C5.72168 15.6476 8.64726 18.5824 12.2492 18.5824C15.8522 18.5824 18.7777 15.6475 18.7777 12.0201V11.2701H20.2777V12.0201C20.2777 16.4692 16.6873 20.0824 12.2492 20.0824C7.81203 20.0824 4.22168 16.4692 4.22168 12.0201V11.2701H5.72168Z" fill="black"/>
</svg>
