<svg width="25" height="25" viewBox="0 0 25 25" fill="none" xmlns="http://www.w3.org/2000/svg">
<path fill-rule="evenodd" clip-rule="evenodd" d="M13.0002 16.9641V22.854H11.5002V16.9641H13.0002Z" fill="black"/>
<path fill-rule="evenodd" clip-rule="evenodd" d="M15.7197 22.854H8.77949V21.354H15.7197V22.854Z" fill="black"/>
<path fill-rule="evenodd" clip-rule="evenodd" d="M21.5049 7.46387V13.3537H20.0049V7.46387H21.5049Z" fill="black"/>
<path fill-rule="evenodd" clip-rule="evenodd" d="M4.49512 7.46411V13.354H2.99512V7.46411H4.49512Z" fill="black"/>
<path fill-rule="evenodd" clip-rule="evenodd" d="M12.2504 3.854C10.3013 3.854 8.71484 5.44278 8.71484 7.40945V13.4096C8.71484 15.376 10.301 16.9639 12.2504 16.9639C14.2007 16.9639 15.7859 15.3761 15.7859 13.4096V7.40945C15.7859 5.44266 14.2005 3.854 12.2504 3.854ZM7.21484 7.40945C7.21484 4.62092 9.46629 2.354 12.2504 2.354C15.0357 2.354 17.2859 4.62104 17.2859 7.40945V13.4096C17.2859 16.1982 15.0355 18.4639 12.2504 18.4639C9.46654 18.4639 7.21484 16.1983 7.21484 13.4096V7.40945Z" fill="black"/>
</svg>
