<svg width="25" height="24" viewBox="0 0 25 24" fill="none" xmlns="http://www.w3.org/2000/svg">
<path fill-rule="evenodd" clip-rule="evenodd" d="M18.8427 6.97156L19.2153 7.62245C20.7724 10.3425 20.773 13.6668 19.2148 16.3802L18.8414 17.0306L17.5406 16.2836L17.9141 15.6332C19.2062 13.3831 19.2068 10.6268 17.9136 8.36767L17.5409 7.71677L18.8427 6.97156Z" fill="black"/>
<path fill-rule="evenodd" clip-rule="evenodd" d="M13.0956 3.7373H14.9009V20.2627H13.0956L8.96968 16.6863H4.1192L4.11858 15.937C4.11644 13.3124 4.11644 10.6878 4.11858 8.06316L4.1192 7.31378H8.96967L13.0956 3.7373ZM13.4009 5.45769L9.5293 8.81378H5.61803C5.61662 10.938 5.61662 13.0622 5.61803 15.1863H9.52929L13.4009 18.5423V5.45769Z" fill="black"/>
</svg>
