<svg width="25" height="24" viewBox="0 0 25 24" fill="none" xmlns="http://www.w3.org/2000/svg">
<path fill-rule="evenodd" clip-rule="evenodd" d="M19.6061 4.3313L20.034 4.94727C22.9837 9.1936 22.9938 14.7978 20.0337 19.0535L19.6054 19.6692L18.374 18.8126L18.8023 18.1969C21.4033 14.4575 21.3952 9.53616 18.802 5.80303L18.3741 5.18706L19.6061 4.3313Z" fill="black"/>
<path fill-rule="evenodd" clip-rule="evenodd" d="M16.9755 6.97156L17.3481 7.62245C18.9052 10.3425 18.9058 13.6668 17.3476 16.3802L16.9741 17.0306L15.6733 16.2836L16.0468 15.6332C17.339 13.3831 17.3395 10.6268 16.0463 8.36767L15.6737 7.71677L16.9755 6.97156Z" fill="black"/>
<path fill-rule="evenodd" clip-rule="evenodd" d="M11.2284 3.7373H13.0338V20.2627H11.2284L7.10249 16.6863H2.25201L2.2514 15.937C2.24925 13.3124 2.24925 10.6878 2.2514 8.06316L2.25201 7.31378H7.10248L11.2284 3.7373ZM11.5338 5.45769L7.66211 8.81378H3.75084C3.74943 10.938 3.74943 13.0622 3.75084 15.1863H7.66211L11.5338 18.5423V5.45769Z" fill="black"/>
</svg>
