<svg width="25" height="24" viewBox="0 0 25 24" fill="none" xmlns="http://www.w3.org/2000/svg">
<path fill-rule="evenodd" clip-rule="evenodd" d="M17.8061 11.0281L22.6303 11.0281V12.5281H17.8063M17.8063 12.5281C16.656 12.5289 15.8468 13.3615 15.8467 14.2436C15.8474 15.1265 16.6565 15.9589 17.8065 15.9595H22.6303V17.4595H17.8061C15.9643 17.4585 14.3479 16.0849 14.3467 14.2443C14.3467 12.4028 15.9648 11.0291 17.8061 11.0281" fill="black"/>
<path fill-rule="evenodd" clip-rule="evenodd" d="M1.86914 4.97595H22.6305V22H1.86914V4.97595ZM3.36914 6.47595V20.5H21.1305V6.47595H3.36914Z" fill="black"/>
<path fill-rule="evenodd" clip-rule="evenodd" d="M1.86914 2L19.9983 2.0008V6.37803H18.4983V3.50074L3.36914 3.50007V21.9996H1.86914V2Z" fill="black"/>
<path fill-rule="evenodd" clip-rule="evenodd" d="M6.43359 9.54382H13.3671V11.0438H6.43359V9.54382Z" fill="black"/>
</svg>
